<?xml version="1.0" encoding="UTF-8"?>
<svg id="uuid-1efd805c-e37b-4dce-b317-e9367cceb535" data-name="Ebene 2" xmlns="http://www.w3.org/2000/svg" viewBox="0 0 2431.875 642.0039">
  <defs>
    <style>
      .uuid-82f1013f-0604-4ceb-be81-3d61fdd45820 {
        fill: none;
      }

      .uuid-82f1013f-0604-4ceb-be81-3d61fdd45820, .uuid-bedbbd32-66a3-4fb4-9768-4b5d2e8336e9 {
        stroke: #000;
        stroke-miterlimit: 10;
        stroke-width: 6px;
      }

      .uuid-a4f05b30-530d-4e4b-b2df-18c1d6022958, .uuid-bedbbd32-66a3-4fb4-9768-4b5d2e8336e9 {
        fill: #fff;
      }

      .uuid-30463ce6-d8fe-4ace-86ee-b9e3714b09bd {
        fill: #3d7dd2;
      }
    </style>
  </defs>
  <g id="uuid-f9973538-816c-4a0a-b2ca-0e93c7f7ca37" data-name="Ebene 1">
    <g>
      <path class="uuid-a4f05b30-530d-4e4b-b2df-18c1d6022958" d="m919.7993,112.1973c42.6001,0,89.4009,14.4004,118.2012,36.001v34.7998c-29.4004-22.7998-67.2007-40.2002-118.2012-40.2002-87.001,0-150.0015,63.001-150.0015,157.2021s63.0005,157.2012,150.0015,157.2012c51.0005,0,88.8008-17.4004,118.2012-40.2002v34.7998c-28.8003,21.6006-75.6011,36.001-118.2012,36.001-100.2012,0-184.2021-71.4014-184.2021-187.8018s84.001-187.8027,184.2021-187.8027Z"/>
      <path class="uuid-a4f05b30-530d-4e4b-b2df-18c1d6022958" d="m1140.5908,119.998v156.002h214.8018V119.998h33.001v360.0039h-33.001v-174.6016h-214.8018v174.6016h-33.0005V119.998h33.0005Z"/>
      <path class="uuid-a4f05b30-530d-4e4b-b2df-18c1d6022958" d="m1475.3818,480.002h-34.2002l148.8018-360.0039h27l148.8018,360.0039h-36l-43.2012-104.4014h-168.6016l-42.6006,104.4014Zm126.6016-310.8037l-72.001,177.002h144.6016l-72.6006-177.002Z"/>
      <path class="uuid-a4f05b30-530d-4e4b-b2df-18c1d6022958" d="m1807.1797,414.6006c22.7998,22.2002,60.6006,43.8008,105.6006,43.8008,44.4004,0,80.4014-27.001,80.4014-69.6006,0-40.2012-19.8008-64.8008-88.2012-83.4004-61.2012-16.8008-94.8008-54.002-94.8008-103.2012s42.6006-90.002,108.6006-90.002c34.8008,0,70.2012,15,90.001,30.001l-7.2002,28.2002c-24-16.8008-57-28.8008-82.8008-28.8008-46.7998,0-75.001,25.2012-75.001,60.6016,0,29.4004,16.8008,55.2002,75.001,70.8008,70.2012,18.5996,108.001,53.4004,108.001,111.6006,0,68.4004-58.2002,103.2012-114.001,103.2012-52.2002,0-92.4004-21.001-112.2012-40.2002l6.6006-33.001Z"/>
      <path class="uuid-a4f05b30-530d-4e4b-b2df-18c1d6022958" d="m2296.7734,119.998v29.4004h-171.002v126.6016h141.001v29.4004h-141.001v145.2012h171.002v29.4004h-204.0029V119.998h204.0029Z"/>
    </g>
    <g>
      <path class="uuid-a4f05b30-530d-4e4b-b2df-18c1d6022958" d="m517.875,305.9121c0,106.83-71.44,196.98-169.16,225.27-2.48.72-4.98,1.3999-7.5,2.04-18.5,4.7-37.88,7.1899-57.84,7.1899-129.51,0-234.5-104.99-234.5-234.5s104.99-234.5,234.5-234.5,234.5,104.99,234.5,234.5Z"/>
      <line class="uuid-bedbbd32-66a3-4fb4-9768-4b5d2e8336e9" x1="210.875" y1="159.4121" x2="282.875" y2="306.4121"/>
      <g>
        <line class="uuid-82f1013f-0604-4ceb-be81-3d61fdd45820" x1="23.875" y1="183.4121" x2="282.875" y2="306.4121"/>
        <line class="uuid-a4f05b30-530d-4e4b-b2df-18c1d6022958" x1="23.875" y1="183.4121" x2="282.875" y2="306.4121"/>
      </g>
      <line class="uuid-bedbbd32-66a3-4fb4-9768-4b5d2e8336e9" x1="324.875" y1="84.4121" x2="282.875" y2="306.4121"/>
      <line class="uuid-bedbbd32-66a3-4fb4-9768-4b5d2e8336e9" x1="397.875" y1="216.4121" x2="282.875" y2="306.4121"/>
      <line class="uuid-bedbbd32-66a3-4fb4-9768-4b5d2e8336e9" x1="374.875" y1="427.4121" x2="282.875" y2="306.4121"/>
      <line class="uuid-bedbbd32-66a3-4fb4-9768-4b5d2e8336e9" x1="517.875" y1="335.4121" x2="282.875" y2="306.4121"/>
      <g>
        <circle class="uuid-a4f05b30-530d-4e4b-b2df-18c1d6022958" cx="283.375" cy="305.9121" r="28.4763"/>
        <path d="m283.375,281.4597c13.4831,0,24.4524,10.9694,24.4524,24.4524s-10.9693,24.4524-24.4524,24.4524-24.4524-10.9694-24.4524-24.4524,10.9693-24.4524,24.4524-24.4524m0-8.0476c-17.9492,0-32.5,14.5508-32.5,32.5s14.5508,32.5,32.5,32.5,32.5-14.5508,32.5-32.5-14.5508-32.5-32.5-32.5h0Z"/>
      </g>
      <g>
        <circle class="uuid-a4f05b30-530d-4e4b-b2df-18c1d6022958" cx="398.375" cy="215.9121" r="21.375"/>
        <path d="m398.375,197.5371c10.132,0,18.375,8.243,18.375,18.375s-8.243,18.375-18.375,18.375-18.375-8.243-18.375-18.375,8.243-18.375,18.375-18.375m0-6c-13.4619,0-24.375,10.9131-24.375,24.375s10.9131,24.375,24.375,24.375,24.375-10.9131,24.375-24.375-10.9131-24.375-24.375-24.375h0Z"/>
      </g>
      <g>
        <circle class="uuid-a4f05b30-530d-4e4b-b2df-18c1d6022958" cx="325.375" cy="83.9121" r="21.375"/>
        <path d="m325.375,65.5371c10.132,0,18.375,8.243,18.375,18.375s-8.243,18.375-18.375,18.375-18.375-8.243-18.375-18.375,8.243-18.375,18.375-18.375m0-6c-13.4619,0-24.375,10.9131-24.375,24.375s10.9131,24.375,24.375,24.375,24.375-10.9131,24.375-24.375-10.9131-24.375-24.375-24.375h0Z"/>
      </g>
      <g>
        <circle class="uuid-a4f05b30-530d-4e4b-b2df-18c1d6022958" cx="24.375" cy="182.9121" r="21.375"/>
        <path d="m24.375,164.5371c10.132,0,18.375,8.243,18.375,18.375s-8.243,18.375-18.375,18.375-18.375-8.243-18.375-18.375,8.243-18.375,18.375-18.375m0-6c-13.4619,0-24.375,10.9131-24.375,24.375s10.9131,24.375,24.375,24.375,24.375-10.9131,24.375-24.375-10.9131-24.375-24.375-24.375h0Z"/>
      </g>
      <g>
        <circle class="uuid-a4f05b30-530d-4e4b-b2df-18c1d6022958" cx="374.375" cy="426.9121" r="21.375"/>
        <path d="m374.375,408.5371c10.132,0,18.375,8.243,18.375,18.375s-8.243,18.375-18.375,18.375-18.375-8.243-18.375-18.375,8.243-18.375,18.375-18.375m0-6c-13.4619,0-24.375,10.9131-24.375,24.375s10.9131,24.375,24.375,24.375,24.375-10.9131,24.375-24.375-10.9131-24.375-24.375-24.375h0Z"/>
      </g>
      <g>
        <circle class="uuid-a4f05b30-530d-4e4b-b2df-18c1d6022958" cx="517.375" cy="334.9121" r="21.375"/>
        <path d="m517.375,316.5371c10.132,0,18.375,8.243,18.375,18.375s-8.243,18.375-18.375,18.375-18.375-8.243-18.375-18.375,8.243-18.375,18.375-18.375m0-6c-13.4619,0-24.375,10.9131-24.375,24.375s10.9131,24.375,24.375,24.375,24.375-10.9131,24.375-24.375-10.9131-24.375-24.375-24.375h0Z"/>
      </g>
      <g>
        <circle class="uuid-a4f05b30-530d-4e4b-b2df-18c1d6022958" cx="211.375" cy="158.9121" r="21.375"/>
        <path d="m211.375,140.5371c10.132,0,18.375,8.243,18.375,18.375s-8.243,18.375-18.375,18.375-18.375-8.243-18.375-18.375,8.243-18.375,18.375-18.375m0-6c-13.4619,0-24.375,10.9131-24.375,24.375s10.9131,24.375,24.375,24.375,24.375-10.9131,24.375-24.375-10.9131-24.375-24.375-24.375h0Z"/>
      </g>
      <g>
        <path class="uuid-30463ce6-d8fe-4ace-86ee-b9e3714b09bd" d="m348.715,531.1821c-2.48.72-4.98,1.3999-7.5,2.04-.19-.3501-.38-.7301-.61-1.1401-12.26-21.2899-23.71-37.6099-44.05-45.73-8.1-3.23-21.77-5.71-34.79-2.8699-29.22,6.3699-75.09,7.1699-106.18-26.7401-1.71-1.86-.22-1.3099.48-.84,17.47,11.45,38.57,14.09,66.82,9.62,29.35-4.64,60.42,8.25,87.55,25.8099,20.39,13.1801,30.41,27.76,38.28,39.8501Z"/>
        <path id="uuid-ec8e3a00-a2fc-421e-ad31-0bec201a26cd" data-name="path15" class="uuid-30463ce6-d8fe-4ace-86ee-b9e3714b09bd" d="m131.9474,395.075c-.8072-2.2127-.605-2.4343.9908-.6591,11.0594,12.3683,17.7322,19.1085,31.8084,26.6592,14.0764,7.5434,28.2678,16.7649,34.5086,21.5309,6.2485,4.7618,12.911,9.0367,18.1464,11.7198,1.3874.7068,1.8825-.2119.2464-1.2877-21.9064-14.4405-24.9376-38.2224-26.0642-54.3318-1.1119-16.1087-.1656-23.2617-.4027-27.0199-.2429-3.7591.5134-2.7266,1.7104.1125,9.2677,21.9255,14.4467,23.2163,21.66,47.3863,5.9496,19.9669,5.519,33.3581,15.18,40.6567,1.8025,1.3598,1.3979,2.0874-1.0046,1.607-10.6337-2.1408-17.3553-3.0504-26.2929-2.6625-30.9041-.3879-52.6298-14.8035-70.4864-63.7113h0Z"/>
        <path id="uuid-55b287d9-9d50-40ea-bc23-4c40cb42ee1e" data-name="path17" class="uuid-30463ce6-d8fe-4ace-86ee-b9e3714b09bd" d="m189.5284,425.1894c-10.5712-19.2199-11.7655-30.9773-28.2112-56.0145-6.3221-9.6233-13.8378-18.2305-18.2829-27.6596-.9732-2.0616-2.4685-1.5339-1.978,1.4521,4.7926,29.9835,13.8207,64.6878,46.5424,83.0896,2.2305,1.2491,2.9192.9093,1.9298-.8676Z"/>
      </g>
    </g>
  </g>
</svg>