<?xml version="1.0" encoding="UTF-8"?>
<svg id="uuid-fcbb2bd0-7bcc-46dc-84ad-1853cff36285" data-name="Ebene 2" xmlns="http://www.w3.org/2000/svg" viewBox="0 0 541.75 480.875">
  <defs>
    <style>
      .uuid-12f96385-f5b1-42e7-8f14-bcb390eee1f5 {
        fill: none;
      }

      .uuid-12f96385-f5b1-42e7-8f14-bcb390eee1f5, .uuid-aea043a0-b4eb-4bcb-af43-8004f96bb158 {
        stroke: #000;
        stroke-miterlimit: 10;
        stroke-width: 6px;
      }

      .uuid-6e745bb2-d6db-48fa-9544-518dd1ef5b8b, .uuid-aea043a0-b4eb-4bcb-af43-8004f96bb158 {
        fill: #fff;
      }

      .uuid-08df5e9c-cea1-417e-aa87-9fc098bfd44f {
        fill: #3d7dd2;
      }
    </style>
  </defs>
  <g id="uuid-244297db-6cf2-49f0-8da6-db5a2108d833" data-name="Ebene 1">
    <g>
      <path class="uuid-6e745bb2-d6db-48fa-9544-518dd1ef5b8b" d="m517.875,246.375c0,106.83-71.44,196.98-169.16,225.27-2.48.72-4.98,1.3999-7.5,2.04-18.5,4.7-37.88,7.1899-57.84,7.1899-129.51,0-234.5-104.99-234.5-234.5S153.865,11.875,283.375,11.875s234.5,104.99,234.5,234.5Z"/>
      <line class="uuid-aea043a0-b4eb-4bcb-af43-8004f96bb158" x1="210.875" y1="99.875" x2="282.875" y2="246.875"/>
      <g>
        <line class="uuid-12f96385-f5b1-42e7-8f14-bcb390eee1f5" x1="23.875" y1="123.875" x2="282.875" y2="246.875"/>
        <line class="uuid-6e745bb2-d6db-48fa-9544-518dd1ef5b8b" x1="23.875" y1="123.875" x2="282.875" y2="246.875"/>
      </g>
      <line class="uuid-aea043a0-b4eb-4bcb-af43-8004f96bb158" x1="324.875" y1="24.875" x2="282.875" y2="246.875"/>
      <line class="uuid-aea043a0-b4eb-4bcb-af43-8004f96bb158" x1="397.875" y1="156.875" x2="282.875" y2="246.875"/>
      <line class="uuid-aea043a0-b4eb-4bcb-af43-8004f96bb158" x1="374.875" y1="367.875" x2="282.875" y2="246.875"/>
      <line class="uuid-aea043a0-b4eb-4bcb-af43-8004f96bb158" x1="517.875" y1="275.875" x2="282.875" y2="246.875"/>
      <g>
        <circle class="uuid-6e745bb2-d6db-48fa-9544-518dd1ef5b8b" cx="283.375" cy="246.375" r="28.4763"/>
        <path d="m283.375,221.9226c13.4831,0,24.4524,10.9694,24.4524,24.4524s-10.9693,24.4524-24.4524,24.4524-24.4524-10.9694-24.4524-24.4524,10.9693-24.4524,24.4524-24.4524m0-8.0476c-17.9492,0-32.5,14.5508-32.5,32.5s14.5508,32.5,32.5,32.5,32.5-14.5508,32.5-32.5-14.5508-32.5-32.5-32.5h0Z"/>
      </g>
      <g>
        <circle class="uuid-6e745bb2-d6db-48fa-9544-518dd1ef5b8b" cx="398.375" cy="156.375" r="21.375"/>
        <path d="m398.375,138c10.132,0,18.375,8.243,18.375,18.375s-8.243,18.375-18.375,18.375-18.375-8.243-18.375-18.375,8.243-18.375,18.375-18.375m0-6c-13.4619,0-24.375,10.9131-24.375,24.375s10.9131,24.375,24.375,24.375,24.375-10.9131,24.375-24.375-10.9131-24.375-24.375-24.375h0Z"/>
      </g>
      <g>
        <circle class="uuid-6e745bb2-d6db-48fa-9544-518dd1ef5b8b" cx="325.375" cy="24.375" r="21.375"/>
        <path d="m325.375,6c10.132,0,18.375,8.243,18.375,18.375s-8.243,18.375-18.375,18.375-18.375-8.243-18.375-18.375,8.243-18.375,18.375-18.375m0-6c-13.4619,0-24.375,10.9131-24.375,24.375s10.9131,24.375,24.375,24.375,24.375-10.9131,24.375-24.375S338.8369,0,325.375,0h0Z"/>
      </g>
      <g>
        <circle class="uuid-6e745bb2-d6db-48fa-9544-518dd1ef5b8b" cx="24.375" cy="123.375" r="21.375"/>
        <path d="m24.375,105c10.132,0,18.375,8.243,18.375,18.375s-8.243,18.375-18.375,18.375-18.375-8.243-18.375-18.375,8.243-18.375,18.375-18.375m0-6c-13.4619,0-24.375,10.9131-24.375,24.375s10.9131,24.375,24.375,24.375,24.375-10.9131,24.375-24.375-10.9131-24.375-24.375-24.375h0Z"/>
      </g>
      <g>
        <circle class="uuid-6e745bb2-d6db-48fa-9544-518dd1ef5b8b" cx="374.375" cy="367.375" r="21.375"/>
        <path d="m374.375,349c10.132,0,18.375,8.243,18.375,18.375s-8.243,18.375-18.375,18.375-18.375-8.243-18.375-18.375,8.243-18.375,18.375-18.375m0-6c-13.4619,0-24.375,10.9131-24.375,24.375s10.9131,24.375,24.375,24.375,24.375-10.9131,24.375-24.375-10.9131-24.375-24.375-24.375h0Z"/>
      </g>
      <g>
        <circle class="uuid-6e745bb2-d6db-48fa-9544-518dd1ef5b8b" cx="517.375" cy="275.375" r="21.375"/>
        <path d="m517.375,257c10.132,0,18.375,8.243,18.375,18.375s-8.243,18.375-18.375,18.375-18.375-8.243-18.375-18.375,8.243-18.375,18.375-18.375m0-6c-13.4619,0-24.375,10.9131-24.375,24.375s10.9131,24.375,24.375,24.375,24.375-10.9131,24.375-24.375-10.9131-24.375-24.375-24.375h0Z"/>
      </g>
      <g>
        <circle class="uuid-6e745bb2-d6db-48fa-9544-518dd1ef5b8b" cx="211.375" cy="99.375" r="21.375"/>
        <path d="m211.375,81c10.132,0,18.375,8.243,18.375,18.375s-8.243,18.375-18.375,18.375-18.375-8.243-18.375-18.375,8.243-18.375,18.375-18.375m0-6c-13.4619,0-24.375,10.9131-24.375,24.375s10.9131,24.375,24.375,24.375,24.375-10.9131,24.375-24.375-10.9131-24.375-24.375-24.375h0Z"/>
      </g>
      <g>
        <path class="uuid-08df5e9c-cea1-417e-aa87-9fc098bfd44f" d="m348.715,471.645c-2.48.72-4.98,1.3999-7.5,2.04-.19-.3501-.38-.7301-.61-1.1401-12.26-21.2899-23.71-37.6099-44.05-45.73-8.1-3.23-21.77-5.71-34.79-2.8699-29.22,6.3699-75.09,7.1699-106.18-26.7401-1.71-1.86-.22-1.3099.48-.84,17.47,11.45,38.57,14.09,66.82,9.62,29.35-4.64,60.42,8.25,87.55,25.8099,20.39,13.1801,30.41,27.76,38.28,39.8501Z"/>
        <path id="uuid-4f7cc591-10a3-4ee2-88a9-419f246cfc78" data-name="path15" class="uuid-08df5e9c-cea1-417e-aa87-9fc098bfd44f" d="m131.9474,335.5379c-.8072-2.2127-.605-2.4343.9908-.6591,11.0594,12.3683,17.7322,19.1085,31.8084,26.6592,14.0764,7.5434,28.2678,16.7649,34.5086,21.5309,6.2485,4.7618,12.911,9.0367,18.1464,11.7198,1.3874.7068,1.8825-.2119.2464-1.2877-21.9064-14.4405-24.9376-38.2224-26.0642-54.3318-1.1119-16.1087-.1656-23.2617-.4027-27.0199-.2429-3.7591.5134-2.7266,1.7104.1125,9.2677,21.9255,14.4467,23.2163,21.66,47.3863,5.9496,19.9669,5.519,33.3581,15.18,40.6567,1.8025,1.3598,1.3979,2.0874-1.0046,1.607-10.6337-2.1408-17.3553-3.0504-26.2929-2.6625-30.9041-.3879-52.6298-14.8035-70.4864-63.7113h0Z"/>
        <path id="uuid-a1671c56-d180-487d-bd87-a550ed4e0a0a" data-name="path17" class="uuid-08df5e9c-cea1-417e-aa87-9fc098bfd44f" d="m189.5284,365.6523c-10.5712-19.2199-11.7655-30.9773-28.2112-56.0145-6.3221-9.6233-13.8378-18.2305-18.2829-27.6596-.9732-2.0616-2.4685-1.5339-1.978,1.4521,4.7926,29.9835,13.8207,64.6878,46.5424,83.0896,2.2305,1.2491,2.9192.9093,1.9298-.8676Z"/>
      </g>
    </g>
  </g>
</svg>