<?xml version="1.0" encoding="UTF-8"?>
<svg xmlns="http://www.w3.org/2000/svg" xmlns:xlink="http://www.w3.org/1999/xlink" viewBox="0 0 783.68 712.68">
  <defs>
    <style>
      .cls-1, .cls-2, .cls-3, .cls-4, .cls-5, .cls-6, .cls-7, .cls-8, .cls-9, .cls-10, .cls-11, .cls-12, .cls-13, .cls-14, .cls-15, .cls-16, .cls-17, .cls-18, .cls-19, .cls-20, .cls-21, .cls-22, .cls-23, .cls-24, .cls-25, .cls-26, .cls-27, .cls-28, .cls-29, .cls-30, .cls-31, .cls-32, .cls-33, .cls-34, .cls-35, .cls-36, .cls-37, .cls-38, .cls-39, .cls-40, .cls-41, .cls-42, .cls-43, .cls-44, .cls-45, .cls-46, .cls-47, .cls-48, .cls-49, .cls-50, .cls-51, .cls-52, .cls-53, .cls-54, .cls-55, .cls-56, .cls-57, .cls-58, .cls-59, .cls-60, .cls-61, .cls-62, .cls-63 {
        fill-rule: evenodd;
        stroke-width: 0px;
      }

      .cls-1, .cls-2, .cls-3, .cls-5, .cls-6, .cls-7, .cls-8, .cls-9, .cls-10, .cls-63 {
        mix-blend-mode: multiply;
      }

      .cls-1, .cls-2, .cls-3, .cls-5, .cls-7, .cls-8, .cls-9, .cls-10, .cls-62, .cls-63 {
        opacity: .5;
      }

      .cls-1, .cls-48 {
        fill: #171e69;
      }

      .cls-2 {
        fill: #5f7ffb;
      }

      .cls-3, .cls-56 {
        fill: #c9deff;
      }

      .cls-4 {
        fill: url(#linear-gradient);
      }

      .cls-5 {
        fill: #8d6dfc;
      }

      .cls-6 {
        fill: #1c2475;
        opacity: .3;
      }

      .cls-7 {
        fill: url(#linear-gradient-15);
      }

      .cls-8 {
        fill: url(#linear-gradient-17);
      }

      .cls-9 {
        fill: url(#linear-gradient-37);
      }

      .cls-10 {
        fill: url(#linear-gradient-40);
      }

      .cls-11 {
        fill: url(#linear-gradient-9);
      }

      .cls-12 {
        fill: url(#linear-gradient-8);
      }

      .cls-13 {
        fill: url(#linear-gradient-3);
      }

      .cls-14 {
        fill: url(#linear-gradient-2);
      }

      .cls-15 {
        fill: url(#linear-gradient-4);
      }

      .cls-16 {
        fill: url(#linear-gradient-5);
      }

      .cls-17 {
        fill: url(#linear-gradient-6);
      }

      .cls-18 {
        fill: url(#linear-gradient-42);
      }

      .cls-19 {
        fill: url(#linear-gradient-41);
      }

      .cls-20 {
        fill: url(#linear-gradient-28);
      }

      .cls-21 {
        fill: url(#linear-gradient-29);
      }

      .cls-22 {
        fill: url(#linear-gradient-32);
      }

      .cls-23 {
        fill: url(#linear-gradient-25);
      }

      .cls-24 {
        fill: url(#linear-gradient-30);
      }

      .cls-25 {
        fill: url(#linear-gradient-33);
      }

      .cls-26 {
        fill: url(#linear-gradient-38);
      }

      .cls-27 {
        fill: url(#linear-gradient-36);
      }

      .cls-28 {
        fill: url(#linear-gradient-31);
      }

      .cls-29 {
        fill: url(#linear-gradient-34);
      }

      .cls-30 {
        fill: url(#linear-gradient-39);
      }

      .cls-31 {
        fill: url(#linear-gradient-35);
      }

      .cls-32 {
        fill: url(#linear-gradient-14);
      }

      .cls-33 {
        fill: url(#linear-gradient-11);
      }

      .cls-34 {
        fill: url(#linear-gradient-13);
      }

      .cls-35 {
        fill: url(#linear-gradient-10);
      }

      .cls-36 {
        fill: url(#linear-gradient-12);
      }

      .cls-37 {
        fill: url(#linear-gradient-16);
      }

      .cls-38 {
        fill: url(#linear-gradient-19);
      }

      .cls-39 {
        fill: url(#linear-gradient-23);
      }

      .cls-40 {
        fill: url(#linear-gradient-22);
      }

      .cls-41 {
        fill: url(#linear-gradient-18);
      }

      .cls-42 {
        fill: url(#linear-gradient-20);
      }

      .cls-43 {
        fill: url(#linear-gradient-21);
      }

      .cls-44 {
        fill: url(#linear-gradient-24);
      }

      .cls-45 {
        fill: url(#linear-gradient-27);
      }

      .cls-46 {
        fill: url(#linear-gradient-26);
      }

      .cls-47 {
        fill: #00cedc;
      }

      .cls-49 {
        fill: #0f6eee;
      }

      .cls-50 {
        fill: #1c2372;
      }

      .cls-51 {
        fill: #24053e;
      }

      .cls-52 {
        fill: #244df7;
      }

      .cls-53 {
        fill: #5a2d68;
      }

      .cls-54 {
        fill: #4d4bfd;
      }

      .cls-55 {
        fill: #313a8d;
      }

      .cls-57, .cls-62 {
        fill: #dde4ff;
      }

      .cls-58 {
        fill: #ff9484;
      }

      .cls-59 {
        fill: #ff8978;
      }

      .cls-60 {
        fill: #ff9080;
      }

      .cls-61 {
        fill: #f98eda;
      }

      .cls-64 {
        isolation: isolate;
      }

      .cls-63 {
        fill: url(#linear-gradient-7);
      }
    </style>
    <linearGradient id="linear-gradient" x1="574.58" y1="127.47" x2="425.97" y2="496.52" gradientUnits="userSpaceOnUse">
      <stop offset="0" stop-color="#fd90da"/>
      <stop offset="1" stop-color="#8e6dfd"/>
    </linearGradient>
    <linearGradient id="linear-gradient-2" x1="496.02" y1="92.79" x2="373.12" y2="398.02" xlink:href="#linear-gradient"/>
    <linearGradient id="linear-gradient-3" x1="354.31" y1="637.12" x2="375.84" y2="551" gradientUnits="userSpaceOnUse">
      <stop offset="0" stop-color="#1c8ef4"/>
      <stop offset="1" stop-color="#00cfdd"/>
    </linearGradient>
    <linearGradient id="linear-gradient-4" x1="376.08" y1="67.86" x2="239.03" y2="408.22" xlink:href="#linear-gradient"/>
    <linearGradient id="linear-gradient-5" x1="441.58" y1="230.75" x2="339.92" y2="483.22" xlink:href="#linear-gradient"/>
    <linearGradient id="linear-gradient-6" x1="134.41" y1="206.53" x2="131.56" y2="184.19" gradientUnits="userSpaceOnUse">
      <stop offset="0" stop-color="#4d4bfe"/>
      <stop offset="1" stop-color="#2893f4"/>
    </linearGradient>
    <linearGradient id="linear-gradient-7" x1="123.3" y1="233.11" x2="126.02" y2="184.94" xlink:href="#linear-gradient-6"/>
    <linearGradient id="linear-gradient-8" x1="350.22" y1="21.74" x2="198.66" y2="398.13" xlink:href="#linear-gradient"/>
    <linearGradient id="linear-gradient-9" x1="152.12" y1="341.14" x2="141.65" y2="335.19" gradientUnits="userSpaceOnUse">
      <stop offset="0" stop-color="#ffb89e"/>
      <stop offset="1" stop-color="#ffa799"/>
    </linearGradient>
    <linearGradient id="linear-gradient-10" x1="150.63" y1="321.79" x2="171.18" y2="360.12" gradientUnits="userSpaceOnUse">
      <stop offset="0" stop-color="#ff8a78"/>
      <stop offset="1" stop-color="#ffa799"/>
    </linearGradient>
    <linearGradient id="linear-gradient-11" x1="59.74" y1="157.58" x2="37.13" y2="203.49" gradientUnits="userSpaceOnUse">
      <stop offset="0" stop-color="#5a2d68"/>
      <stop offset="1" stop-color="#22043d"/>
    </linearGradient>
    <linearGradient id="linear-gradient-12" x1="216.01" y1="330.63" x2="171.17" y2="338.23" xlink:href="#linear-gradient-9"/>
    <linearGradient id="linear-gradient-13" x1="149.15" y1="304.84" x2="197.36" y2="352" xlink:href="#linear-gradient-10"/>
    <linearGradient id="linear-gradient-14" x1="127.33" y1="292.44" x2="143.4" y2="257.35" xlink:href="#linear-gradient-3"/>
    <linearGradient id="linear-gradient-15" x1="117.61" y1="297.21" x2="133.82" y2="234.44" xlink:href="#linear-gradient-3"/>
    <linearGradient id="linear-gradient-16" x1="93.85" y1="255.12" x2="100.35" y2="188.3" xlink:href="#linear-gradient-6"/>
    <linearGradient id="linear-gradient-17" x1="98.33" y1="259.7" x2="101.06" y2="192.65" xlink:href="#linear-gradient-6"/>
    <linearGradient id="linear-gradient-18" x1="74.9" y1="172.01" x2="76.97" y2="179.79" xlink:href="#linear-gradient-10"/>
    <linearGradient id="linear-gradient-19" x1="90.28" y1="155.63" x2="75.08" y2="159.44" xlink:href="#linear-gradient-9"/>
    <linearGradient id="linear-gradient-20" x1="169.44" y1="174.8" x2="157.85" y2="180.04" xlink:href="#linear-gradient-9"/>
    <linearGradient id="linear-gradient-21" x1="106.14" y1="252.76" x2="109.54" y2="189.11" xlink:href="#linear-gradient-6"/>
    <linearGradient id="linear-gradient-22" x1="587.65" y1="275.24" x2="588.69" y2="261.42" xlink:href="#linear-gradient-10"/>
    <linearGradient id="linear-gradient-23" x1="535.85" y1="79.12" x2="384.37" y2="455.32" xlink:href="#linear-gradient"/>
    <linearGradient id="linear-gradient-24" x1="525.04" y1="546.81" x2="532.88" y2="553.81" xlink:href="#linear-gradient-10"/>
    <linearGradient id="linear-gradient-25" x1="477.46" y1="530.78" x2="483.41" y2="538.66" xlink:href="#linear-gradient-10"/>
    <linearGradient id="linear-gradient-26" x1="658.74" y1="433.12" x2="563.68" y2="471.39" gradientUnits="userSpaceOnUse">
      <stop offset="0" stop-color="#3e4795"/>
      <stop offset="1" stop-color="#273088"/>
    </linearGradient>
    <linearGradient id="linear-gradient-27" x1="668.43" y1="419.74" x2="541.57" y2="460.07" xlink:href="#linear-gradient-26"/>
    <linearGradient id="linear-gradient-28" x1="560.75" y1="267.7" x2="556.89" y2="274.71" xlink:href="#linear-gradient-9"/>
    <linearGradient id="linear-gradient-29" x1="657.44" y1="314.43" x2="654.59" y2="318.86" xlink:href="#linear-gradient-10"/>
    <linearGradient id="linear-gradient-30" x1="649.62" y1="292.6" x2="657.04" y2="298.02" xlink:href="#linear-gradient-9"/>
    <linearGradient id="linear-gradient-31" x1="669.11" y1="282.07" x2="664.62" y2="306.32" xlink:href="#linear-gradient-11"/>
    <linearGradient id="linear-gradient-32" x1="376.42" y1="445.89" x2="370.43" y2="468.72" xlink:href="#linear-gradient-9"/>
    <linearGradient id="linear-gradient-33" x1="364.4" y1="477.79" x2="362.95" y2="445.51" xlink:href="#linear-gradient-10"/>
    <linearGradient id="linear-gradient-34" x1="263.75" y1="353.68" x2="249.25" y2="364.95" xlink:href="#linear-gradient-9"/>
    <linearGradient id="linear-gradient-35" x1="263.29" y1="390.82" x2="250.68" y2="328.12" xlink:href="#linear-gradient-10"/>
    <linearGradient id="linear-gradient-36" x1="365.81" y1="574.21" x2="343.98" y2="585.33" xlink:href="#linear-gradient-26"/>
    <linearGradient id="linear-gradient-37" x1="351.58" y1="578.38" x2="334.35" y2="589.34" xlink:href="#linear-gradient-26"/>
    <linearGradient id="linear-gradient-38" x1="321.76" y1="576.69" x2="288.33" y2="601.39" xlink:href="#linear-gradient-26"/>
    <linearGradient id="linear-gradient-39" x1="326.53" y1="493.72" x2="267.4" y2="409.37" gradientUnits="userSpaceOnUse">
      <stop offset="0" stop-color="#6d6afe"/>
      <stop offset="1" stop-color="#3fb0f7"/>
    </linearGradient>
    <linearGradient id="linear-gradient-40" x1="332.79" y1="457.65" x2="302.4" y2="420.1" xlink:href="#linear-gradient-39"/>
    <linearGradient id="linear-gradient-41" x1="294.23" y1="391.18" x2="302.04" y2="389.51" xlink:href="#linear-gradient-9"/>
    <linearGradient id="linear-gradient-42" x1="338.82" y1="405.98" x2="320.16" y2="444.64" xlink:href="#linear-gradient-11"/>
  </defs>
  <g class="cls-64">
    <g id="Ebene_2" data-name="Ebene 2">
      <g id="Layer_1" data-name="Layer 1">
        <g>
          <g>
            <path class="cls-2" d="m376.59,712.68c-169.27,0-306.49-12.1-306.49-27.02s137.22-27.02,306.49-27.02,306.49,12.1,306.49,27.02-137.22,27.02-306.49,27.02Z"/>
            <path class="cls-2" d="m376.59,702.86c-101.56,0-183.89-7.7-183.89-17.2s82.33-17.2,183.89-17.2,183.89,7.7,183.89,17.2-82.33,17.2-183.89,17.2Z"/>
          </g>
          <g>
            <path class="cls-4" d="m377.72,445.45h63.38l-.5-.35c11.01-.7,25.99-3.75,22.76-17.78-1.11-4.81-3.21-8.37-5.89-12.42-4.67-7.05-7.01-11.62-7.01-20.41,0-18.83,15.26-34.09,34.09-34.09s34.09,15.26,34.09,34.09c0,15.64-7.84,17.81-12.2,30.42-3.24,9.35.61,15.31,9.87,18.18-2.24,4.41-4.42,8.78-6.51,13.08-20.41,42.07-26.16,68.73-48.54,86.04-4.33-15.71-18.68-26.67-35.04-26.67-7.43,0-12.52,1.53-18.71,5.49-4.23,2.71-7.6,5.16-12.45,6.85-2.58.9-5.56,1.45-8.23.57-7.99-2.63-8.9-17.2-9.1-23.9v-59.1Z"/>
            <path class="cls-5" d="m377.72,445.45h63.37l-.5-.36c11.01-.69,25.98-3.75,22.76-17.77-1.11-4.81-3.21-8.36-5.89-12.42-4.66-7.05-7.01-11.61-7.01-20.41,0-18.83,15.27-34.09,34.1-34.09,8.66,0,16.56,3.23,22.57,8.55-16.52-3.29-30.39-.13-37.79,9.17-15.34,19.27,4.53,29.2,6.92,47.75,1.18,9.17-1.65,17.6-8.73,22.19-17.91,11.62-59.52,7.19-89.8,7.94v-10.55Z"/>
          </g>
          <g>
            <path class="cls-14" d="m592.54,227.24c0-135.01-77.62-213.79-214.81-214.8v60.61c.2,6.71,1.11,21.28,9.1,23.92,2.67.88,5.64.33,8.23-.57,4.85-1.68,8.22-4.14,12.45-6.85,6.19-3.96,11.29-5.49,18.71-5.49,20.08,0,36.35,16.28,36.35,36.35s-16.28,36.35-36.35,36.35c-9.26,0-14.22-2.47-21.66-7.39-3.81-2.52-7.15-4.53-11.67-5.57-1.99-.46-4.1-.59-6.06.06-7.98,2.63-8.9,17.18-9.1,23.85v59.52h59.57c10.97.33,29.63,2.43,26.07,17.93-1.11,4.81-3.21,8.36-5.89,12.41-4.67,7.06-7.02,11.62-7.02,20.41,0,18.83,15.26,34.09,34.09,34.09s34.09-15.26,34.09-34.09c0-15.64-7.84-17.82-12.2-30.42-5.96-17.21,12.69-19.96,25.44-20.33h60.67Z"/>
            <path class="cls-5" d="m377.72,217.98v9.26h59.57c10.97.32,29.63,2.43,26.07,17.92-1.1,4.81-3.21,8.36-5.88,12.41-4.67,7.06-7.03,11.62-7.03,20.42,0,18.83,15.27,34.09,34.1,34.09,7.88,0,15.14-2.68,20.92-7.17-16.7,3.42-30.73.29-38.19-9.09-15.34-19.27,4.53-29.2,6.92-47.75,1.18-9.17-1.65-17.6-8.73-22.19-17.51-11.36-57.66-7.38-87.74-7.9Z"/>
          </g>
          <path class="cls-13" d="m275.59,528.42l6.49,60.24c5.45,50.56,40.92,92.49,90.93,92.56h0s.11,0,.11,0h7.05c50.01-.07,85.48-41.99,90.93-92.56l6.49-60.25c-1.6,2.25-3.3,4.43-5.12,6.51-2.96,3.37-6.21,6.43-9.76,9.18l-.7.54h0s-.33.25-.33.25l-1.78,1.38-.02-.09c-9.51,6.64-20.51,10.96-31.6,14.12-35.63,10.17-67.75,10.17-103.38,0-16.98-4.85-32.35-11.9-44.2-25.38-1.82-2.07-3.52-4.25-5.12-6.5Z"/>
          <path class="cls-15" d="m375.46,442.78h-65.79c-10.49-1.09-21.41-4.33-17.05-16.92,1.68-4.85,4.14-8.22,6.85-12.45,3.96-6.19,5.48-11.29,5.48-18.71,0-20.08-16.28-36.35-36.35-36.35s-36.35,16.28-36.35,36.35c0,9.26,2.47,14.22,7.39,21.66,2.52,3.81,4.53,7.15,5.57,11.67,1.68,7.3-2.33,11.06-9.09,13.13l-.19.06c-35.74-70.05-75.28-131.08-75.28-211.71h60.67c11.01-.32,29.68-2.43,26.11-17.93-1.11-4.81-3.21-8.37-5.89-12.42-4.67-7.05-7.01-11.62-7.01-20.41,0-18.83,15.26-34.09,34.09-34.09s34.09,15.26,34.09,34.09c0,15.64-7.84,17.81-12.2,30.42-5.96,17.21,12.7,19.96,25.42,20.33h59.54v59.54c-.2,6.67-1.11,21.23-9.1,23.87-2.67.88-5.64.33-8.23-.57-4.85-1.68-8.22-4.14-12.45-6.85-6.19-3.96-11.29-5.49-18.71-5.49-20.08,0-36.35,16.28-36.35,36.35s16.28,36.35,36.35,36.35c9.26,0,14.22-2.47,21.66-7.39,3.81-2.52,7.15-4.53,11.67-5.57,1.99-.46,4.1-.59,6.06.06,7.98,2.63,8.9,17.17,9.1,23.87v59.1Z"/>
          <path class="cls-5" d="m160.88,239.98c-.15-3.46-.23-6.95-.23-10.48h60.67c11.01-.32,29.68-2.43,26.11-17.92-.45-1.97-1.07-3.72-1.83-5.39,5.84,5.09,5.53,23.52.06,28.07-5.52,4.59-15.57,5.51-22.55,5.72h-62.23Zm85.55-87.11c15.78-5.02,41.45.7,38.37,21.59-1.86,12.59-13.6,24.31-14.63,29.9-2.82,15.38,11.32,32.1,34.23,33.52l63.58,1.2c-.38,11.96,6.98,53.19-.68,73.45,7.12-3.44,7.97-17.09,8.16-23.5v-59.53h-59.53c-12.71-.37-31.38-3.11-25.42-20.33,4.37-12.6,12.22-14.78,12.22-30.42,0-18.83-15.27-34.09-34.1-34.09-8.47,0-16.22,3.09-22.19,8.21Z"/>
          <path class="cls-16" d="m236.97,443.26c2.21,4.36,4.36,8.66,6.42,12.91,28.03,57.76,28.39,86.49,82.17,101.84,35.29,10.07,66.79,10.07,102.08,0,13.5-3.85,23.63-8.55,31.68-14.34l-.11-.43c-3.92-14.96-17.48-25.43-32.98-25.43s-17.81,7.84-30.42,12.21c-17.21,5.96-19.96-12.69-20.33-25.44v-59.13h-59.56c-12.72-.37-31.38-3.12-25.42-20.33,4.37-12.61,12.2-14.79,12.2-30.42,0-18.83-15.26-34.09-34.09-34.09s-34.09,15.26-34.09,34.09c0,8.79,2.35,13.36,7.01,20.41,2.68,4.05,4.78,7.6,5.89,12.41,1.94,8.42-2.64,13.29-10.45,15.74Z"/>
          <g>
            <path class="cls-17" d="m171.26,166.45c-16.32,20.95-35.57,43.21-70.01,19.14-4.14-2.89-13.98-9.39-20.16-6.44-9.06,4.32-6.53,13.26-2.23,18.98,9.28,12.33,34.93,20.01,49.93,19.11,22.12-1.33,41.59-16.28,58.49-44.28l-16.03-6.51Z"/>
            <path class="cls-63" d="m101.25,185.59c-4.14-2.89-13.98-9.39-20.16-6.44-9.06,4.32-6.53,13.26-2.23,18.98,9.28,12.33,34.93,20.01,49.93,19.11,17.65-1.06,33.61-10.79,47.92-28.9-38.16,32.37-55.85,20.6-75.47-2.75Z"/>
          </g>
          <path class="cls-12" d="m151.08,221.85c.43-134.98,77.15-213.85,214.8-214.8v60.64c.37,12.75,3.12,31.42,20.33,25.45,12.61-4.37,14.79-12.21,30.42-12.21,18.83,0,34.09,15.26,34.09,34.09s-15.26,34.09-34.09,34.09c-8.79,0-13.36-2.35-20.41-7.02-4.05-2.68-7.6-4.78-12.41-5.89-15.5-3.56-17.6,15.1-17.93,26.08v59.56h-59.51c-6.68-.2-21.25-1.11-23.88-9.1-.88-2.67-.33-5.64.57-8.23,1.68-4.85,4.14-8.22,6.84-12.45,3.96-6.19,5.48-11.29,5.48-18.71,0-20.08-16.28-36.35-36.35-36.35s-36.35,16.28-36.35,36.35c0,9.26,2.47,14.22,7.39,21.66,2.52,3.81,4.53,7.15,5.57,11.67.46,1.99.59,4.1-.06,6.06-2.63,7.98-17.18,8.9-23.88,9.1h-60.63Z"/>
          <g>
            <path class="cls-52" d="m147.66,246.82c.44-2.62,3.78-19.19.61-20.25-2.35-.83-7.1,3.49-12.64,14.43l12.02,5.82Z"/>
            <g>
              <path class="cls-49" d="m131.39,331.07c-.7,3.48,10.38-.22,27.29-4.65l-3.01-16.16c-6.04,3.61-23.12,14.99-24.29,20.81Z"/>
              <path class="cls-49" d="m179.99,289.37c3.44-16.45,15.46-39.88,17.56-41.61,2.52-2.07,3.71,4.18,4.29,12.12,1.39,19.06-5.56,38.22-12.05,45.84l-9.8-16.34Z"/>
            </g>
            <g>
              <path class="cls-11" d="m167.5,252.15c19.04,27.57,29.76,39.36,7.58,72.85-17.51,26.45-35.1,53.44-37.61,67.36-.84,4.69-.26,10.18.2,17.12.4,5.96.46,13.93.57,21.48l-13.09-22.11-2.26-18.29,2.01-10.02c14.27-45.13,26.65-67.52,11.02-114.24l31.57-14.16Z"/>
              <path class="cls-35" d="m167.5,252.15c19.04,27.57,29.76,39.36,7.58,72.85-1.9,2.87-3.8,5.74-5.68,8.6-3.19-4.86-6.1-9.43-9.21-14.94-3.51,2.88-6.89,4.76-10.4,7.64-6.62,24.97-14.18,40.61-24.75,53.83,14.21-44.85,26.47-67.25,10.89-113.82l31.57-14.16Z"/>
              <path class="cls-49" d="m125.17,379.07c.83,6.85,1.81,13.23,3.41,18.75,2.01,6.94,5.55,12.53,8.1,20.82,1.82,5.92,2.92,13.58.82,18.89-6.8-9.69-11.48-20.68-17.3-30.98l-1.54,1.03c-1.74-3.17-2.94-5.64-4.15-8.49-1.5-3.52-1.75-4.57.05-8.27,2.68-5.51,4.64-7.08,10.6-11.76Z"/>
            </g>
            <g>
              <path class="cls-33" d="m73.22,132.27c-10.43-4.43-15.75.13-19.83,7.56-4.28,7.8-4.74,11.77-7.65,14.69-4.92,4.94-11.35,3.93-24.5,4.8-23.17,1.53-24.39,23.35-17.72,38.92,7.91,18.47,30.57,30.86,48.52,33.31,22.2,3.03,28.91-7.54,29.49-20.34.38-8.44-2.45-13.99-1.77-17.29,2.75-13.4,14.78-9.33,15.6-24.44.45-8.42-7.5-14.31-6.6-24.93,9.6-19.2-8.63-19-15.53-12.28Z"/>
              <path class="cls-51" d="m2.58,195.85c.29.81.6,1.6.94,2.38,7.91,18.47,30.57,30.86,48.52,33.31,22.2,3.03,28.91-7.54,29.49-20.34.38-8.44-2.45-13.99-1.77-17.29,2.75-13.4,14.78-9.33,15.6-24.44.45-8.42-7.5-14.31-6.6-24.93.19-.37.36-.74.53-1.1-5.13,1.41-11.95.29-19.5-3.42-1.83,4.48-1.71,9.41-2.13,14.28-4.88-2.81-6.32.78-6.67,6.02-.5,7.59-.77,9.35-3.28,10.58-15.69,7.64-17.01,9.14-29.6,23.9-9.04,10.6-14.32,8.26-25.52,1.05Z"/>
            </g>
            <g>
              <path class="cls-36" d="m145.45,249.34c45.47,47.86,45.6,40.12,53.1,70.23,5.14,20.65,4.23,49.58,14.57,71.39,4.15,8.76,9.83,13.88,25.4,29.1l-14.41-2.13-24.93-12.28c-1.83-7.18-1.47-14.33-3.69-20.57-3-8.41-8.34-19.88-13.2-31.92-4.87-12.05-9.82-25.61-16.28-36.14-6.82-11.12-28.13-28.48-38.35-37.64l17.79-30.06Z"/>
              <path class="cls-34" d="m145.45,249.34c22.17,23.34,33.56,33.45,40.28,41.19-2.19,5.29-4.83,11.06-12.02,18.25,16.35,40.98,22.77,58.27,26.34,97.32l-.87-.43c-1.83-7.18-1.47-14.33-3.69-20.57-3-8.41-8.34-19.88-13.2-31.92-4.87-12.05-9.82-25.61-16.28-36.14-6.82-11.12-28.13-28.48-38.35-37.64l17.79-30.06Z"/>
              <path class="cls-49" d="m197.18,394.7c5.4,4.29,10.58,8.14,15.6,10.95,6.3,3.53,11.69,5.14,19.6,8.71,5.6,2.53,12.41,8.03,14.66,13.28-11.65-2.12-22.7-6.65-34.07-9.9l-.38,1.82c-3.47-1.04-6.06-1.95-8.92-3.13-3.54-1.46-4.45-2.02-5.77-5.92-1.97-5.8-1.67-8.3-.71-15.82Z"/>
            </g>
            <path class="cls-32" d="m127.98,226.6c32.23,28.08,59.8,18.43,70.79,20.79-2.13-.05-1.81,3.89-3.22,9.73-9.55,39.63-30.83,50.95-47.49,61.73-6.43,4.16-12.83,5.52-16.67,12.23,8.62-38.84-13.67-26.09-29.2-47.34-4.45-6.1-8.87-16.57-13.3-26.31l39.08-30.81Z"/>
            <path class="cls-7" d="m127.98,226.6c4.73,4.12,9.36,7.43,13.85,10.08-3.29,15.06-20.7,34.37-26.39,39.8,12.62,3.81,31.17,15.45,36.16,40.1-1.2.76-2.38,1.52-3.54,2.27-6.43,4.16-12.83,5.52-16.67,12.23,8.62-38.84-13.67-26.09-29.2-47.34-4.45-6.1-8.87-16.57-13.3-26.31l39.08-30.81Z"/>
            <g>
              <path class="cls-37" d="m95.05,277.01c17.48-10.33,34.86-24.08,45.77-41.34,3.22-5.1,5.81-9.34,7.37-9.13-12.84-2.75-20.22-4.64-38.9-26.1-8.8-10.11-12.33-19.4-24.06-22.46-20.1-5.25-32.26.47-35.65,9.09-2.23,5.68-1.47,12.92,1.51,21.07,7.31,19.96,31.62,51.22,43.95,68.87Z"/>
              <path class="cls-8" d="m146.77,226.23c-11.27-2.46-18.59-4.84-34.37-22.29-16.43,2.31-29.01-9.25-42.42-16.25-6.39-3.34-14.04.9-15.58,5.93-1.44,4.7-.73,13.82,6.08,22.59,18.88,24.32,55.94,24.24,86.3,10.03Z"/>
            </g>
            <g>
              <g>
                <path class="cls-41" d="m70.9,166.46c0,5.5-.05,7.02-1.44,12.34,1.45,5.44,11.09,8.65,13.47.06-.81-2.59-.78-4.38-.69-6.51l-4.45-4.01-6.89-1.88Z"/>
                <g>
                  <path class="cls-38" d="m90.54,146.39c.64,8.72,1.85,15.85-1.28,22.53-2.69,5.73-6.78,5.14-11.01,3.05-4.31-2.13-6.59-3.48-9.51-7.17-1.06-.58-2.27-.65-3.46-1.87-1.76-1.82-2.91-5.07-1.46-7.17.64-.94,2.19-.25,3.22,1.52,1.29,2.22,2.04.06,2.07-1.53.08-4.37,1.27-7.08,2.14-11.62,5.8,2.95,13.48,6.75,19.29,2.25Z"/>
                  <path class="cls-58" d="m90.54,146.39c.1,1.37.21,2.69.32,3.99-5.95,2.19-12.22.92-18.7-3.99-1.4,3.99-.65,7.16-1.5,10.01-.69,2.33-1.7,3.36-3.09,2.86-1.97-.71-1.69-2.05-4.14-2.71.1-.28.24-.54.41-.79.64-.94,2.19-.25,3.22,1.52,1.29,2.22,2.04.06,2.07-1.53.08-4.37,1.27-7.08,2.14-11.62,5.8,2.95,13.48,6.75,19.29,2.25Z"/>
                </g>
              </g>
              <g>
                <path class="cls-53" d="m86.7,148.45c-6.65,1.09-17.06-3.13-17.3-9.62-.22-5.96,6.59-9.96,12.41-11.02,15.96-2.9,19.47,18.25,4.89,20.64Z"/>
                <path class="cls-51" d="m86.7,148.45c-6.12,1-15.41-2.48-17.05-8.1.04-.11.09-.22.13-.33,11.59,5.68,21.47,5.29,26.12-1.02-.29,4.34-3.22,8.47-9.2,9.45Z"/>
              </g>
            </g>
            <g>
              <path class="cls-42" d="m162.27,195.2l4.57-4.57c4.88-6.2,6.25-6.21,6.29-14.34.03-4.32-.56-10.19-1.55-12.3-.77-1.65-2.38-3.78-5.43-4.86-.78,9.81-6.22,13.24-7.29,18.57-.81,4.02-.7,8.64-2.98,12.93l6.39,4.57Z"/>
              <path class="cls-43" d="m155.51,186.24c2.1.16,8.36,3.14,10.52,7.01-20.35,26.37-42.74,42.27-79.2,36.55-37.18-5.83-42.51-46.42-24.01-44.71,10.29.95,18.71,14.21,30.39,20.67,12.34,6.82,38.81,6.31,62.3-19.53Z"/>
            </g>
          </g>
          <g>
            <path class="cls-40" d="m590.48,278.74l10.77.58c-1.48-4.53-1.91-6.29-2.38-11.03-.56-5.7-2.5-10.13-4.7-13.58-2.7-4.25-4.31-3.03-3.22,2.16.31,1.48.69,2.9,1.18,4.69-4.12-4.02-3.76-5.77-5.43-11.59-.7-2.42-1-4.9-1.2-5.13-1.88-2.21-7.49-2.86-9.07-.68-1.58,2.17.75,13.3,1.66,16.23,1.6,5.18,2.43,7.85,4.72,9.57,4.87,3.67,4.07,3.65,7.67,8.77Z"/>
            <path class="cls-56" d="m588.94,277.35c5.05-1.9,6.31-2.47,11.67-3.12,5.54,13.65,8.32,24,13.4,31.49,5.72,8.44,15.28,12.14,30.98,15.86l7.13,13.53-24.81,8.03c-27.29-18.16-33.57-27.18-38.36-65.78Z"/>
            <path class="cls-3" d="m588.94,277.35c11.92,33.49,11.96,40.6,40.39,39.62,4.38,1.72,9.55,3.16,15.65,4.61l7.13,13.53-24.81,8.03c-27.29-18.16-33.57-27.18-38.36-65.78Z"/>
          </g>
          <path class="cls-39" d="m594.92,229.5c-.36,81.21-39,140.67-75.18,211.54l-.2-.06c-8.17-2.47-11.42-7.13-8.58-15.33,1.68-4.85,4.14-8.22,6.84-12.45,3.96-6.19,5.49-11.29,5.49-18.71,0-20.08-16.28-36.35-36.35-36.35s-36.35,16.28-36.35,36.35c0,9.26,2.47,14.22,7.39,21.66,2.52,3.81,4.53,7.15,5.57,11.67,2.79,12.14-10.94,14.3-19.94,14.96h-63.49v-59.13c-.33-11.01-2.43-29.66-17.93-26.1-4.81,1.11-8.36,3.21-12.42,5.89-7.05,4.67-11.62,7.01-20.41,7.01-18.83,0-34.09-15.26-34.09-34.09s15.26-34.09,34.09-34.09c15.64,0,17.81,7.84,30.42,12.21,17.21,5.96,19.96-12.69,20.33-25.4v-59.57h59.54c6.67.2,21.2,1.12,23.84,9.1.65,1.96.52,4.08.06,6.06-1.04,4.52-3.05,7.86-5.57,11.67-4.92,7.44-7.39,12.4-7.39,21.66,0,20.08,16.28,36.35,36.35,36.35s36.35-16.28,36.35-36.35c0-7.42-1.53-12.52-5.49-18.71-2.71-4.23-5.17-7.6-6.84-12.45-.9-2.58-1.45-5.56-.57-8.23,2.64-7.98,17.2-8.9,23.9-9.1h60.62Z"/>
          <g>
            <g>
              <path class="cls-50" d="m535.79,553.84c2.09,1.47,4.01,3.23,4.97,4.99,2.38,4.38,1.44,9.88-3.93,12.18-11.68,5.01-21.97,9.38-33.76,13.91-1.61.62-1.98-1.06-2.01-1.53-.62-10.22,15.14-12.6,19.91-23.71,2.29-5.35,10.38-8.95,14.82-5.84Z"/>
              <path class="cls-44" d="m523.75,543.11c-1.69,5-1.53,9.28-1.15,14.27.16,2.06,4.34,2.9,7.8,1.91,2.64-.75,4.89-2.84,4.41-4.65-1.06-3.91.04-7.65,1.04-11.52h-12.1Z"/>
            </g>
            <g>
              <path class="cls-50" d="m486.69,539.5c1.76,1.85,3.29,3.97,3.88,5.88,1.46,4.76-.54,9.97-6.26,11.16-12.44,2.6-23.4,4.84-35.85,6.94-1.7.29-1.73-1.43-1.67-1.89,1.42-10.14,17.34-9.35,24.21-19.29,3.31-4.79,11.95-6.72,15.69-2.79Z"/>
              <path class="cls-23" d="m476.27,526.57c-1.22,4.8-1.65,9.26-3.03,14.22-1.25,4.51,11.47,4.09,12.51-.26.91-3.82,2.24-7.77,3.13-11.53l-12.61-2.43Z"/>
            </g>
            <path class="cls-46" d="m595.39,391.99c-21.95,20.44-44.5,49.77-57.69,77.2-9.8,20.4-14.1,42.72-17.78,79.19,3.82,2.18,12.9,2.13,16.97.42,7.82-27.23,13.68-46.6,30.7-70.76,25.89-36.73,57.4-47.49,63.18-69.19l-35.39-16.86Z"/>
            <path class="cls-6" d="m595.39,391.99c-21.95,20.44-44.5,49.77-57.69,77.2-7.99,16.63-12.32,34.53-15.64,60.32,15.88-48.82,25.63-66.36,49.77-76.62,13.8-5.86,31.73-11.95,42.76-21.85,7.99-7.17,13.98-13.88,16.19-22.18l-35.39-16.86Z"/>
            <path class="cls-45" d="m585.34,391.16c-28.91,14.32-52.2,23.8-65.56,34.93-13.13,10.93-20.86,26.76-31.3,53.22-8.15,20.66-10.97,31.23-16.05,52.75,6.04,1.66,12.57.84,17.32-.53,19.36-41.8,28.34-68.77,56.08-81.73,32.71-15.28,54.38-1.97,83.02-35.15l-43.5-23.49Z"/>
            <path class="cls-20" d="m561.3,286.68l10.77.58c-1.48-4.53-1.91-6.29-2.38-11.03-.56-5.7-2.5-10.13-4.7-13.58-2.7-4.25-4.31-3.03-3.22,2.16.31,1.48.69,2.9,1.18,4.69-4.12-4.02-3.76-5.77-5.43-11.59-.69-2.42-1-4.9-1.2-5.13-1.88-2.21-7.49-2.86-9.07-.68-1.58,2.17.75,13.3,1.66,16.23,1.6,5.18,2.43,7.85,4.73,9.57,4.87,3.67,4.07,3.65,7.67,8.77Z"/>
            <path class="cls-21" d="m645.97,308.78c-1.38,4.21-2.23,8.61-7.27,12.54l21.93,11.65c-3.8-10.82-2.1-15.23,1.4-21.71l-9.09-2.65-6.96.17Z"/>
            <g>
              <path class="cls-24" d="m653.4,279.32c-5.73,2.67-13.36,11.58-16.27,19.91-.98,2.81-2.33,6.26-1.03,8.16,1.41,2.07,4.64,3.18,9.46,5.04,6.99,2.7,7.07.74,13.69-3.55l13.04-11.11-5.7-17.84-13.19-.62Z"/>
              <path class="cls-60" d="m653.4,279.32c-.88.41-1.8.96-2.74,1.64,1.26,2.07,2.27,2.96,6.11,4.52-1.66,3.76-4.62,13.83.31,15.03.88.21,2.32-.37,3.43-.48,1.37-.13,2.58.94.95,2.58-4.42,4.45-6.38,4.69-6.51,9.27,1.12-.78,2.45-1.8,4.29-2.99l13.04-11.11-5.7-17.84-13.19-.62Z"/>
            </g>
            <g>
              <path class="cls-28" d="m658.69,284.65c-11.11-4.19-9.12-11.65-4.11-15.34,6.27-4.61,17.65-3.96,18.6,9,5.63.13,7.13,1.49,6.49,7.54,9.13,2.39,8.23,11.2,2.7,17.07-5.05,5.35-11.84,6.92-18.17,9.83-1.89.87-3.73,1.85-5.48,3.09-2.12-2.11-2.16-3.42-1.61-5.46.38-1.42,4.06-4.97,5.82-7.63,1.31-1.98.77-4.35-2.19-4.1-.88.07-1.82.89-3.33,1.28-3.39-5.54-.72-9.61,1.28-15.27Z"/>
              <path class="cls-51" d="m658.69,284.65c-11.11-4.19-9.12-11.65-4.11-15.34.08-.06.17-.12.25-.18-1.86,4.48-.66,8.32,3.71,10.41,4.91,2.36,6.13,3.47,3.81,9.97-1.23,3.43-2,5.59.26,6.12,4.89,1.13,6.3,4.29,3.61,9.52-1.33,2.59-1.36,5.01.14,6.66-.72.3-1.44.61-2.16.94-1.89.87-3.51,2.23-4.83,4.13-6.24-6.23.29-9.16,3.56-14.12,1.31-1.98.77-4.35-2.19-4.1-.88.07-1.82.89-3.33,1.28-3.39-5.54-.72-9.61,1.28-15.27Z"/>
            </g>
            <path class="cls-56" d="m570.84,281.04c19.82,51.58,23.73,42.89,49.14,39.41,19.05-2.61,25.97-1.03,38.95,4.21,3.84,16.33,2.96,27.11-1.22,39.91-6.01,18.42-18.86,37.41-30.26,56.79-20.95-4.21-40.06-14.55-55.09-28.13,14.08-16.05,25.36-29.81,38.59-46.58-39.85,3.4-43.77-26.86-52.15-61.72,1.97-1.85,7.3-4.48,12.04-3.89Z"/>
            <path class="cls-3" d="m580.3,384.07c10.58-12.35,20.02-23.95,30.66-37.42,10.25-1.43,15.01-2.47,23.54-4.33-25.5,19.39-34.88,23.45-54.2,41.74Z"/>
          </g>
          <g>
            <g>
              <path class="cls-22" d="m404.37,433.23l-5.31,5.46c5.81-.63,9.5-6.09,14.18-10.75,3.47-3.46,7.48-2.05,12-1.65-2.65,7.11-5.07,10.97-8.55,14.81-8.88,9.8-12.57,6.97-18.41,11.25-4.35,3.19-13.98,17.12-18.56,22.06-10.79,11.63-22.22,19.89-35.06,12.74-7.62-4.24-13.1-12.19-17.62-19.53l16.41-17.54c6.05,10.5,10.2,15.98,15.14,16.44,7.84.72,20.99-11.14,30.2-21.82,8.32-9.65,7.15-10.69,13.22-14.16,6.07-3.47,7.18-2.26,2.37,2.69Z"/>
              <path class="cls-25" d="m400.11,451.19c-.59.32-1.2.7-1.83,1.17-4.35,3.19-13.98,17.12-18.56,22.06-10.79,11.63-22.22,19.89-35.06,12.74-7.62-4.24-13.1-12.19-17.62-19.53l16.41-17.54c3.79,6.59,6.84,11.2,9.8,13.83-3.17,5.7-5.97,7.68-11.4,11.09,19.85,21.72,41.31-14.73,58.27-23.83Z"/>
            </g>
            <g>
              <path class="cls-29" d="m260.86,329.38c1.2-5.36.62-10.09-.12-17.69-3.01,1.55-4.47,5.7-4.7,12.03-3.54-6.17-2.07-15.08-2.07-22.36-4.54,3.79-7.09,7.82-9.67,12.57-2.7,4.96-2.56,12.45-1.64,15.85,1.08,3.97,3.22,5.71,3.16,11.73-.31,30.96.27,44.2,17.04,72.78l14.4-18.16c-11.14-13.73-17.36-31.51-19.35-49.86-1.01-9.28,1.13-8.86,2.93-16.88Z"/>
              <path class="cls-31" d="m245.28,336.68c.35,1.3.57,2.82.55,4.83-.31,30.96.27,44.2,17.04,72.78l14.4-18.16c-2.36-2.91-4.32-5.89-6.33-9.08-3.35,1.11-7.78,3.2-11.92,6.82-9.42-19.27-8.85-36.53-13.4-56.99l-.34-.19Z"/>
            </g>
            <g>
              <g>
                <path class="cls-48" d="m366.9,669.62c1.69,5.92,3.77,13.72,3.2,19.76-.24,2.49-.89,4.32-3.73,4.74-1.13.17-2.17.65-2.49,1.15-.82,1.26-.02,3.65,2.39,3.92,4.92.56,13.93-.01,17.71-.51,3.97-.52,1.16-3.83.35-12.53-.18-1.98-.3-3.77.43-5.01,1.43-2.42,1.65-4.76.18-7.95-1.66-3.59-5.07-4.25-7.91-8.75l-10.14,5.17Z"/>
                <path class="cls-1" d="m366.9,669.62c.72,2.52,1.7,6.25,2.39,9.14,6.75-2.05,10.76-3.88,13.17-8.6-.95-.88-4.52-4.27-5.43-5.71l-10.14,5.17Z"/>
              </g>
              <g>
                <path class="cls-48" d="m315.68,681.5c.71,3.78,2.86,6.67,3.2,9.44.58,4.78-1.99,9.59-7.26,9.64l-34.51.33c1.83-12.65,20.27-5.63,26.47-19.66l8.03.49,4.07-.24Z"/>
                <path class="cls-1" d="m315.68,681.5c.23,1.23.62,2.37,1.04,3.44-3.23,2.41-9.47,4.03-16.69,1.37,1.4-1.3,2.61-2.94,3.55-5.06l8.03.49,4.07-.24Z"/>
              </g>
              <path class="cls-27" d="m338.48,497.1c8.1,8.99,12.04,18.05,14.42,25.89,2.34,7.72,2.4,16.23,4.68,29.41,6.63,38.32,13.54,78.53,23.68,115.29-3.38,3.56-10.09,5.43-14.72,4.57-16.13-41.95-33.15-85.47-46.62-128.4-4.84-15.43-5.73-25.33-7.2-44.73l17.01-1.52,8.76-.51Z"/>
              <path class="cls-9" d="m367.26,672.37c-.25-.03-.49-.07-.73-.11-16.13-41.95-33.15-85.47-46.62-128.4-4.84-15.43-5.73-25.33-7.2-44.73l9.39-.84,9.22,15.56c3.57,16.07,5.43,30.36,8.67,44.87,8.63,38.61,19.34,73.5,27.27,113.65Z"/>
              <path class="cls-26" d="m288.6,497.74c-3.39,9.82-6.76,21.3-5.58,35.38,1.52,18.13,5.52,37.73,8.78,57.76,5.39,33.16,7.85,57.53,9.88,91.15,4.94,1.89,10.68,2.31,16.82.51.72-44.02-.85-97.07,6.73-139.62,10.96-14.14,10.54-25.02-.38-44.17l-23.35-2.28-12.88,1.27Z"/>
            </g>
            <g>
              <path class="cls-30" d="m273.83,388.04c-7.21,4.62-13.38,11.06-16.78,19.54,9.52,19.55,15.97,27.65,19.52,37.66,5.78,16.28,5.12,32.24,6.78,70.82,21.49,6.02,59.15.9,69.15-5.39-7.82-12.66-11.88-22.15-15.78-38.46,8.4-5.22,11.39-8.73,18.29-15.78-14.67-38.21-27.51-32.96-44.45-39.81-8.86-3.58-20.13-10.46-36.72-28.58Z"/>
              <path class="cls-10" d="m336.71,472.22c8.4-5.22,11.39-8.73,18.29-15.78-14.67-38.21-27.51-32.96-44.45-39.81-2.52-1.02-5.24-2.31-8.22-4.04l.02.03c6.26,8.49,5.54,11.22,4.05,17.44-3.34,14.03-4.17,23.45-.19,30.88,8.45,15.77,24.94,12.73,30.5,11.28Z"/>
            </g>
            <g>
              <g>
                <path class="cls-19" d="m298.95,378.15c-.9,3.95-5.03,20.54-2.59,23.32,1.24,1.42,5.54.96,8.87.54l9.41-15.56-4.84-9.02-7.13-1.24-3.73,1.96Z"/>
                <path class="cls-59" d="m298.95,378.15c-.17.76-.47,1.99-.81,3.49,1.46,1.17,4.29,2,7.78,1.87-.11,7.63-3.26,12.29-3.96,18.84,1.1-.08,2.23-.21,3.26-.34l9.41-15.56-4.84-9.02-7.13-1.24-3.73,1.96Z"/>
              </g>
              <g>
                <path class="cls-18" d="m317.56,366.82c10.18-4.16,15.43.37,19.46,7.72,4.28,7.8,4.74,11.77,7.65,14.68,4.92,4.94,11.35,3.93,24.5,4.8,23.17,1.53,24.39,23.35,17.72,38.92-7.91,18.47-30.57,30.86-48.52,33.31-22.2,3.02-28.91-7.54-29.49-20.34-.52-11.57,9.19-21.62,1.65-29.84-3.91-4.26-7.84-4.35-7.71-12.14.1-5.91,5.47-13.43,4.34-21.83-1.46.03-2.86-.13-4.09-.49-13.29-3.85-7.98-24.25,6.55-19.76,2.85.88,5.88,2.63,7.95,4.96Z"/>
                <path class="cls-51" d="m367.79,454.68c-9.22,6.24-19.97,10.28-29.42,11.57-22.2,3.02-28.91-7.54-29.49-20.34-.52-11.57,9.19-21.62,1.65-29.84-3.91-4.26-7.84-4.35-7.71-12.14.1-5.91,5.47-13.43,4.34-21.83-1.46.03-2.86-.13-4.09-.49-5.97-1.73-8.18-6.79-7.5-11.44,3.03,7.13,7.96,8.99,15.9,8.89,1.67,10.92-.9,18.26,2.14,24.55,4.86,10.04,10.87,5.12,13.44,17.4,2.69,12.83-2.52,20.49,3.07,30.26,6.57,11.48,26.7,6.33,37.67,3.41Z"/>
              </g>
            </g>
          </g>
          <g>
            <g>
              <path class="cls-62" d="m700.99,141.36l-1.55-12.49h-16.01l-1.55,12.49c-4.79,1.01-9.29,2.76-13.37,5.12l-9.61-7.44-11.32,11.32,6.92,8.94c-2.97,4.26-5.17,9.06-6.38,14.22l-10.71,1.36v16.01l10.71,1.36c1.21,5.16,3.4,9.96,6.38,14.22l-6.92,8.94,11.32,11.32,9.61-7.44c4.07,2.36,8.57,4.11,13.37,5.12l1.55,12.49h16.01l1.55-12.49c4.79-1.01,9.29-2.76,13.37-5.12l9.61,7.44,11.32-11.32-6.92-8.94c2.97-4.26,5.17-9.06,6.38-14.22l10.71-1.36v-16.01l-10.71-1.36c-1.21-5.16-3.4-9.96-6.38-14.22l6.92-8.94-11.32-11.32-9.61,7.44c-4.07-2.36-8.58-4.11-13.37-5.12h0Zm-9.56,14.34c15.02,0,27.19,12.18,27.19,27.19s-12.17,27.19-27.19,27.19-27.19-12.18-27.19-27.19,12.17-27.19,27.19-27.19Z"/>
              <path class="cls-57" d="m173.35,528.33l-1.67-13.46h-17.26l-1.67,13.46c-5.17,1.09-10.02,2.97-14.41,5.51l-10.36-8.02-12.2,12.2,7.46,9.64c-3.2,4.59-5.57,9.77-6.87,15.33l-11.54,1.47v17.26l11.54,1.47c1.3,5.56,3.67,10.74,6.87,15.33l-7.46,9.64,12.2,12.2,10.36-8.02c4.39,2.54,9.24,4.43,14.41,5.51l1.67,13.46h17.26l1.67-13.46c5.17-1.09,10.02-2.97,14.41-5.51l10.36,8.02,12.2-12.2-7.46-9.64c3.2-4.59,5.57-9.77,6.87-15.33l11.54-1.47v-17.26l-11.54-1.47c-1.3-5.56-3.67-10.74-6.87-15.33l7.46-9.64-12.2-12.2-10.36,8.02c-4.39-2.54-9.24-4.43-14.41-5.51h0Zm-10.3,15.45c16.19,0,29.31,13.12,29.31,29.31s-13.12,29.31-29.31,29.31-29.31-13.12-29.31-29.31,13.12-29.31,29.31-29.31Z"/>
              <path class="cls-57" d="m615.37,101.06v2.79c0,1.4-1.14,2.53-2.53,2.53h-4.21c-1.39,0-2.53-1.14-2.53-2.53v-2.79h-.39c-3.33,0-6.06-2.73-6.06-6.06v-11.22c0-1.02.25-1.98.7-2.82h-1.4l-.58-1.48c-.87-2.21-1.98-4.65-3.14-7.22-3.83-8.43-8.27-18.22-7.71-27.28.36-5.78,2.8-10.4,6.51-13.71,3.96-3.54,9.35-5.56,15.15-5.88l1.05-.04c5.38-.11,11.04,1.23,15.48,4.26,4.59,3.13,7.87,8.01,8.25,14.88l.03.84c.22,10.85-5.62,23.09-9.8,31.85l-1.8,3.78h-1.28c.45.85.7,1.81.7,2.83v11.22c0,3.33-2.73,6.06-6.06,6.06h-.39Zm-28.46-71c.43-1.05.55-2.18-.33-2.9l-9.2-7.42c-.88-.71-2.46-.72-2.9.33h0c-.43,1.05-.56,2.19.33,2.9l9.2,7.42c.88.71,2.46.72,2.9-.33h0Zm49.06.97h0c.44,1.05,2.01,1.04,2.9.33l9.2-7.42c.88-.71.76-1.85.33-2.9h0c-.44-1.05-2.01-1.04-2.9-.33l-9.2,7.42c-.88.71-.76,1.85-.33,2.9h0Zm-1.05,31.06h0c0-1.14,1.46-1.74,2.55-1.42l11.34,3.32c1.09.32,1.41,1.42,1.41,2.55h0c0,1.14-1.46,1.74-2.55,1.42l-11.34-3.32c-1.09-.32-1.41-1.41-1.41-2.55h0Zm-48.37,0h0c0-1.14-1.46-1.74-2.55-1.42l-11.34,3.32c-1.09.32-1.41,1.42-1.41,2.55h0c0,1.14,1.46,1.74,2.55,1.42l11.34-3.32c1.09-.32,1.41-1.41,1.41-2.55h0ZM611.63,0h0c1.13,0,2.06.93,2.06,2.06v16.76c0,1.13-.93,2.06-2.06,2.06h0c-1.14,0-2.06-.93-2.06-2.06V2.06c0-1.13.93-2.06,2.06-2.06h0Zm-3.73,76.3v-19.97c0-.85.69-1.55,1.54-1.55h2.57c.85,0,1.54.69,1.54,1.55v19.97h5.87l.53-1.12c3.98-8.36,9.56-20.04,9.36-29.75l-.03-.67c-.29-5.23-2.77-8.92-6.23-11.28-3.6-2.46-8.27-3.54-12.74-3.45l-.9.04c-4.77.26-9.15,1.87-12.3,4.69-2.82,2.52-4.68,6.06-4.96,10.52-.49,7.91,3.7,17.13,7.31,25.09.94,2.08,1.85,4.07,2.63,5.95h5.78Z"/>
              <path class="cls-62" d="m65.01,500.84v2.8c0,1.4-1.14,2.53-2.53,2.53h-4.21c-1.39,0-2.53-1.14-2.53-2.53v-2.8h-.39c-3.33,0-6.06-2.73-6.06-6.06v-11.22c0-1.02.25-1.98.7-2.82h-1.4l-.58-1.48c-.87-2.21-1.98-4.65-3.14-7.22-3.83-8.43-8.27-18.22-7.71-27.28.36-5.78,2.8-10.4,6.51-13.71,3.96-3.54,9.35-5.56,15.15-5.88l1.05-.04c5.38-.11,11.04,1.23,15.48,4.26,4.59,3.13,7.87,8.01,8.25,14.88l.03.84c.22,10.85-5.62,23.09-9.8,31.85l-1.8,3.78h-1.28c.45.85.7,1.81.7,2.83v11.22c0,3.33-2.73,6.06-6.06,6.06h-.39Zm-28.46-71c.43-1.05.55-2.18-.33-2.9l-9.2-7.42c-.88-.71-2.46-.72-2.9.33h0c-.43,1.05-.56,2.19.33,2.9l9.2,7.42c.88.71,2.46.72,2.9-.33h0Zm49.06.97h0c.44,1.05,2.01,1.04,2.9.33l9.2-7.42c.88-.71.76-1.85.33-2.9h0c-.44-1.05-2.01-1.04-2.9-.33l-9.2,7.42c-.88.71-.76,1.85-.33,2.9h0Zm-1.05,31.07h0c0-1.14,1.46-1.74,2.55-1.42l11.34,3.32c1.09.32,1.41,1.42,1.41,2.55h0c0,1.14-1.46,1.74-2.55,1.42l-11.34-3.32c-1.09-.32-1.41-1.41-1.41-2.55h0Zm-48.37,0h0c0-1.14-1.46-1.74-2.55-1.42l-11.34,3.32c-1.09.32-1.41,1.42-1.41,2.55h0c0,1.14,1.46,1.74,2.55,1.42l11.34-3.32c1.09-.32,1.41-1.41,1.41-2.55h0Zm25.09-62.09h0c1.13,0,2.06.93,2.06,2.06v16.76c0,1.13-.93,2.06-2.06,2.06h0c-1.14,0-2.06-.93-2.06-2.06v-16.76c0-1.13.93-2.06,2.06-2.06h0Zm-3.73,76.3v-19.97c0-.85.69-1.55,1.54-1.55h2.57c.85,0,1.54.69,1.54,1.55v19.97h5.87l.53-1.12c3.98-8.36,9.56-20.04,9.36-29.75l-.03-.67c-.29-5.23-2.77-8.92-6.22-11.28-3.6-2.46-8.27-3.54-12.74-3.45l-.9.04c-4.77.26-9.15,1.87-12.3,4.69-2.82,2.52-4.68,6.06-4.96,10.52-.49,7.91,3.7,17.13,7.31,25.09.94,2.08,1.85,4.07,2.63,5.95h5.78Z"/>
              <path class="cls-57" d="m627.54,521.49c10.5,0,19.02,8.52,19.02,19.02s-8.51,19.02-19.02,19.02-19.02-8.52-19.02-19.02,8.52-19.02,19.02-19.02Z"/>
              <path class="cls-62" d="m130.59,63.11c10.5,0,19.02,8.52,19.02,19.02s-8.51,19.02-19.02,19.02-19.02-8.52-19.02-19.02,8.52-19.02,19.02-19.02Z"/>
            </g>
            <g>
              <path class="cls-47" d="m55.46,50.52c1.95-7.09,10.78-17.92,17.61-16.99l8.12,29.52-25.73-12.53Z"/>
              <path class="cls-55" d="m716.92,27.25l-4.24,24,21.12-12.37c-4.91-4.63-10.76-8.68-16.88-11.63Z"/>
              <path class="cls-54" d="m46.24,586.99l13.02,21,8.12-35.35c-6.93,1.66-14.72,6.91-21.14,14.36Z"/>
              <path class="cls-54" d="m738.64,442.31l-23.92,4.63,19.11,15.29c2.57-6.24,4.25-13.15,4.82-19.92Z"/>
              <path class="cls-61" d="m783.68,656.3l-23.51-6.42,10.39,22.16c5.06-4.47,9.63-9.92,13.12-15.75Z"/>
            </g>
          </g>
        </g>
      </g>
    </g>
  </g>
</svg>