<?xml version="1.0" encoding="utf-8"?>
<!-- Generator: Adobe Illustrator 28.2.0, SVG Export Plug-In . SVG Version: 6.00 Build 0)  -->
<svg version="1.1" id="flag-icons-ye" xmlns="http://www.w3.org/2000/svg" xmlns:xlink="http://www.w3.org/1999/xlink" x="0px"
	 y="0px" viewBox="0 0 640 480" style="enable-background:new 0 0 640 480;" xml:space="preserve">
<style type="text/css">
	.st0{fill-rule:evenodd;clip-rule:evenodd;fill:#DA251D;}
	.st1{opacity:0.4;fill:#FFFFFF;enable-background:new    ;}
	.st2{fill:#FFFFFF;}
</style>
<rect class="st0" width="640" height="480"/>
<g>
	<path class="st1" d="M242.2,84.5c10.8,0,19.4,8.7,19.4,19.4v126.3h-38.9V103.9C222.8,93.2,231.5,84.5,242.2,84.5z M339.4,274v-0.4
		c5.7,3.3,12.3,5.2,19.4,5.2c8,0,15.4-2.4,21.6-6.6c5.3,15.1,19.7,26,36.7,26c7.1,0,13.7-1.9,19.4-5.2v5.2
		c0,53.7-43.5,97.2-97.2,97.2H302c-25.8,0-50.5-10.3-68.7-28.5l-7.1-7c-14.6-14.6-22.8-34.4-22.8-55v-16.4
		c0-21.4,17.4-38.9,38.9-38.9h53.5c13.4,0,24.3,10.9,24.3,24.3s-10.9,24.3-24.3,24.3h-34c-5.3,0-9.7,4.4-9.7,9.7s4.4,9.7,9.7,9.7h34
		C319.9,317.8,339.4,298.2,339.4,274z"/>
	<path class="st2" d="M281.1,181.7c0-10.8,8.7-19.4,19.4-19.4s19.4,8.7,19.4,19.4v29.2c0,10.8-8.7,19.4-19.4,19.4
		s-19.4-8.7-19.4-19.4V181.7z M339.4,201.1c0-10.8,8.7-19.4,19.4-19.4s19.4,8.7,19.4,19.4V240c0,10.8-8.7,19.4-19.4,19.4
		s-19.4-8.7-19.4-19.4V201.1z M417.2,201.1c10.8,0,19.4,8.7,19.4,19.4v38.9c0,10.8-8.7,19.4-19.4,19.4s-19.4-8.7-19.4-19.4v-38.9
		C397.8,209.8,406.4,201.1,417.2,201.1z"/>
</g>
</svg>
