<?xml version="1.0" encoding="utf-8"?>
<!-- Generator: Adobe Illustrator 27.3.1, SVG Export Plug-In . SVG Version: 6.00 Build 0)  -->
<svg version="1.1" id="Layer_1" xmlns="http://www.w3.org/2000/svg" xmlns:xlink="http://www.w3.org/1999/xlink" x="0px" y="0px"
	 viewBox="0 0 160 120" style="enable-background:new 0 0 160 120;" xml:space="preserve">
<style type="text/css">
	.st0{fill:#333333;}
	.st1{fill:#FFFFFF;stroke:#FFFFFF;stroke-width:0.6206;stroke-miterlimit:10;}
	.st2{fill:#FFFFFF;stroke:#000000;stroke-miterlimit:10;}
	.st3{stroke:#000000;stroke-miterlimit:10;}
</style>
<path class="st0" d="M16.4,0h127.3c9,0,16.4,7.3,16.4,16.4v87.3c0,9-7.3,16.4-16.4,16.4H16.4c-9,0-16.4-7.3-16.4-16.4V16.4
	C0,7.3,7.3,0,16.4,0z"/>
<g>
	<path class="st1" d="M104.5,42.1c-9.1,8.3-13.8,14.6-13.3,19.5c0.6,6,6.6,8.7,11.2,4.8l-1.8,5.9h8.4l-2.6-5.9
		c4.6,4.4,11.7,2,11.8-4.8C118.4,56.8,113.7,50.4,104.5,42.1z M89.9,31.2l-2.1-6.1h-1.5l-2.2,6.1l-0.5,0.1l-0.2,0.8h2.5v-0.8
		l-0.5-0.1l0.3-1h2.3l0.3,1l-0.5,0.1v0.8h2.5v-0.8L89.9,31.2z M86.1,29.1l0.8-2.6l0.8,2.6H86.1z M123.3,87.5v0.8l0.5,0.1l-0.3,1
		h-2.3l-0.3-1l0.5-0.1v-0.8h-2.5l0.2,0.8l0.5,0.1l2.1,6.1h1.5l2.1-6.1l0.5-0.1v-0.8H123.3z M122.4,93l-0.8-2.6h1.6L122.4,93z
		 M73,17.8l0.1-2.7L31.8,26.2c-1.6,0.4-2.7,1.3-3.6,2.6c-0.7,1.2-0.9,2.7-0.5,4.2L46,100.8c0.4,1.5,1.4,2.7,2.7,3.4
		c1.2,0.7,2.7,0.9,4.2,0.5l18.4-4.8l0.2-7l-3,5.2L58,100.8L71.8,77v-5.2l-17,29.4c-0.1,0.2-0.2,0.3-0.2,0.6l-2.6,0.7
		c-0.8,0.2-1.7,0.1-2.3-0.3c-0.7-0.3-1.2-1.1-1.4-1.8l-0.7-2.6c0.2-0.1,0.3-0.2,0.5-0.5l23.9-41.4l0.1-5.3L46.9,94.3l-2.7-10.4
		l28.5-49.4l0.1-5.3L43.2,80.3l-2.8-10.4l29.8-51.4L73,17.8z M30.2,32.3c-0.2-0.8-0.1-1.7,0.3-2.3c0.3-0.7,1.1-1.2,1.8-1.4l6.5-1.6
		L32,38.7L30.2,32.3z M33,42.1l9.4-16.2l10.4-2.7l-17,29.4L33,42.1z M39.4,66.5l-2.8-10.4l19.6-33.8l10.3-2.8L39.4,66.5z"/>
	<path class="st1" d="M130.7,20.7c-1-1-2.4-1.6-3.9-1.6H82.7c-1.6,0-2.8,0.6-3.8,1.6l-0.1,0.1c-1,1-1.6,2.4-1.6,3.9v70.2
		c0,1.6,0.6,2.9,1.6,3.9c1,1,2.4,1.6,3.9,1.6h44c1.6,0,2.9-0.6,3.9-1.6c1-1,1.6-2.4,1.6-3.9V24.6C132.3,23.1,131.7,21.7,130.7,20.7z
		 M129.8,94.8c0,0.8-0.4,1.6-0.9,2.1c-0.5,0.5-1.3,0.8-2.2,0.8h-44c-0.8,0-1.6-0.3-2.2-0.8c-0.5-0.5-0.9-1.3-0.9-2.1V24.6
		c0-0.8,0.3-1.6,0.9-2.2l0.1-0.1c0.5-0.5,1.3-0.8,2.1-0.8h44c0.8,0,1.6,0.3,2.2,0.9c0.5,0.5,0.9,1.3,0.9,2.2V94.8z"/>
	<path class="st2" d="M128.9,22.4c-0.6-0.6-1.3-0.9-2.2-0.9h-44c-0.7,0-1.6,0.3-2.1,0.8l-0.1,0.1c-0.6,0.6-0.9,1.3-0.9,2.2v70.2
		c0,0.8,0.4,1.7,0.9,2.1c0.6,0.5,1.3,0.8,2.2,0.8h44c0.8,0,1.7-0.3,2.2-0.8c0.5-0.6,0.9-1.3,0.9-2.1V24.6
		C129.8,23.8,129.4,22.9,128.9,22.4z M90.4,32.1h-2.5v-0.8l0.5-0.1l-0.3-1h-2.3l-0.3,1l0.5,0.1v0.8h-2.5l0.2-0.8l0.5-0.1l2.2-6.1
		h1.5l2.1,6.1l0.5,0.1V32.1z M125.7,88.3l-0.5,0.1l-2.1,6.1h-1.5l-2.1-6.1l-0.5-0.1l-0.2-0.8h2.5v0.8l-0.5,0.1l0.3,1h2.3l0.3-1
		l-0.5-0.1v-0.8h2.5V88.3z"/>
	<polygon class="st3" points="125.7,87.5 125.7,88.3 125.2,88.4 123.1,94.5 121.6,94.5 119.5,88.4 119,88.3 118.8,87.5 121.3,87.5 
		121.3,88.3 120.8,88.4 121.1,89.4 123.4,89.4 123.8,88.4 123.3,88.3 123.3,87.5 	"/>
	<polygon class="st3" points="90.4,31.3 90.4,32.1 87.9,32.1 87.9,31.3 88.4,31.2 88.1,30.2 85.8,30.2 85.4,31.2 85.9,31.3 
		85.9,32.1 83.5,32.1 83.6,31.3 84.1,31.2 86.3,25.1 87.8,25.1 89.9,31.2 	"/>
	<path class="st3" d="M118.2,61.7c-0.2,6.8-7.2,9.2-11.8,4.8l2.6,5.9h-8.4l1.8-5.9c-4.6,3.9-10.7,1.2-11.2-4.8
		c-0.5-5,4.2-11.2,13.3-19.5C113.7,50.4,118.4,56.8,118.2,61.7z"/>
</g>
</svg>
