<svg xmlns="http://www.w3.org/2000/svg" viewBox="0 0 941.8 706.4" width="941.8" height="706.4" style="enable-background:new 0 0 941.8 706.4;">
  <defs>
    <style type="text/css">
	    .st0{fill:#FFFFFF;}
    </style>
  </defs>
  <rect x="0" y="0" width="941.8" height="706.4"></rect>
  <path class="st0" d="M217.7,127.3c-9.4-7.4-23-5.7-30.3,3.7s-5.7,23,3.7,30.3l533,417.7c9.4,7.4,23,5.7,30.3-3.7
	c7.4-9.4,5.7-23-3.7-30.3L500.9,349.2c49.2-13.1,85.3-58,85.3-111.3c0-63.7-51.6-115.2-115.2-115.2c-62.8,0-113.9,50.2-115.2,112.7
	L217.7,127.3z M420.8,396.7c-84.4,4.6-151.5,74.6-151.5,160.3c0,14.8,12,26.7,26.7,26.7h349.9c3.5,0,6.8-0.6,9.9-1.9L420.8,396.7z"></path>
</svg>