<?xml version="1.0" encoding="UTF-8"?>
<svg id="uuid-790eeae5-4843-46a8-8edb-048a155bdf26" data-name="Ebene 2" xmlns="http://www.w3.org/2000/svg" viewBox="0 0 2431.875 642.0044">
  <defs>
    <style>
      .uuid-798d8267-234b-48a1-80ac-f8f585f16fe6 {
        fill: none;
        stroke: #000;
        stroke-miterlimit: 10;
        stroke-width: 6px;
      }

      .uuid-df1e4324-7cef-4e2f-9b1c-0667e0b6f87a {
        fill: #fff;
      }

      .uuid-d51db97a-fa43-4d09-800a-e1a2c42fa9c7 {
        fill: #3d7dd2;
      }
    </style>
  </defs>
  <g id="uuid-1a606d9f-1e19-4293-a17e-49a402bfe6fc" data-name="Ebene 1">
    <g>
      <path d="m915.5991,487.8022c-97.2012,0-178.8018-69.6011-178.8018-187.2021,0-118.2012,81.6006-188.4019,178.8018-188.4019,40.2007,0,85.8008,13.8003,114.001,34.2002v21.0005c-28.8003-21.0005-66.6006-36.0005-114.001-36.0005-90.6011,0-158.4014,65.4009-158.4014,169.2017,0,103.2012,67.8003,168.002,158.4014,168.002,47.4004,0,85.2007-14.4004,114.001-35.4004v21c-28.2002,20.4004-73.8003,33.6006-114.001,33.6006Z"/>
      <path d="m1348.793,480.002v-180.6021h-227.4028v180.6021h-20.3999V119.9985h20.3999v160.8013h227.4028V119.9985h20.3994v360.0034h-20.3994Z"/>
      <path d="m1711.1855,480.002l-43.2002-107.4009h-176.4014l-43.2012,107.4009h-21l144.002-360.0034h17.3994l144.002,360.0034h-21.6006Zm-131.4014-330.6035l-81.001,204.6021h162.002l-81.001-204.6021Z"/>
      <path d="m1878.5791,487.8022c-48.001,0-85.8018-18.6006-105.6016-37.2007l3.6006-19.8003c24,20.4004,60,38.4004,102.001,38.4004,48,0,87-30.6001,87-79.2007,0-42.6006-20.3994-70.2007-93.001-91.2007-58.2002-16.8003-90-51.6006-90-99.6011s40.2002-87.001,102.001-87.001c31.2002,0,63.6006,13.2002,82.8008,27.0005l-4.2002,18c-24-15.6001-54.001-26.4004-78.6006-26.4004-51.001,0-81.001,28.8003-81.001,68.4009,0,33.6001,16.2002,63.0005,78.6006,80.4009,66.6006,18.6001,104.4014,51.6006,104.4014,108.6011,0,66.6006-55.8008,99.6011-108.001,99.6011Z"/>
      <path d="m2054.375,480.002V119.9985h191.4023v18.6001h-171.002v142.8013h141.002v18.6001h-141.002v161.4019h171.002v18.6001h-191.4023Z"/>
    </g>
    <g>
      <path class="uuid-d51db97a-fa43-4d09-800a-e1a2c42fa9c7" d="m517.875,305.9126c0,106.83-71.44,196.98-169.16,225.27-2.48.72-4.98,1.3999-7.5,2.04-18.5,4.7-37.88,7.1899-57.84,7.1899-129.51,0-234.5-104.99-234.5-234.5s104.99-234.5,234.5-234.5,234.5,104.99,234.5,234.5Z"/>
      <line class="uuid-798d8267-234b-48a1-80ac-f8f585f16fe6" x1="210.875" y1="159.4126" x2="282.875" y2="306.4126"/>
      <line class="uuid-798d8267-234b-48a1-80ac-f8f585f16fe6" x1="23.875" y1="183.4126" x2="282.875" y2="306.4126"/>
      <line class="uuid-798d8267-234b-48a1-80ac-f8f585f16fe6" x1="324.875" y1="84.4126" x2="282.875" y2="306.4126"/>
      <line class="uuid-798d8267-234b-48a1-80ac-f8f585f16fe6" x1="397.875" y1="216.4126" x2="282.875" y2="306.4126"/>
      <line class="uuid-798d8267-234b-48a1-80ac-f8f585f16fe6" x1="374.875" y1="427.4126" x2="282.875" y2="306.4126"/>
      <line class="uuid-798d8267-234b-48a1-80ac-f8f585f16fe6" x1="517.875" y1="335.4126" x2="282.875" y2="306.4126"/>
      <g>
        <circle class="uuid-df1e4324-7cef-4e2f-9b1c-0667e0b6f87a" cx="283.375" cy="305.9126" r="28.4761"/>
        <path d="m283.375,281.4602c13.4831,0,24.4524,10.9693,24.4524,24.4524s-10.9693,24.4524-24.4524,24.4524-24.4524-10.9693-24.4524-24.4524,10.9693-24.4524,24.4524-24.4524m0-8.0476c-17.9492,0-32.5,14.5508-32.5,32.5s14.5508,32.5,32.5,32.5,32.5-14.5508,32.5-32.5-14.5508-32.5-32.5-32.5h0Z"/>
      </g>
      <g>
        <circle class="uuid-df1e4324-7cef-4e2f-9b1c-0667e0b6f87a" cx="398.375" cy="215.9126" r="21.375"/>
        <path d="m398.375,197.5376c10.132,0,18.375,8.243,18.375,18.375s-8.243,18.375-18.375,18.375-18.375-8.243-18.375-18.375,8.243-18.375,18.375-18.375m0-6c-13.4619,0-24.375,10.9131-24.375,24.375s10.9131,24.375,24.375,24.375,24.375-10.9131,24.375-24.375-10.9131-24.375-24.375-24.375h0Z"/>
      </g>
      <g>
        <circle class="uuid-df1e4324-7cef-4e2f-9b1c-0667e0b6f87a" cx="325.375" cy="83.9126" r="21.375"/>
        <path d="m325.375,65.5376c10.132,0,18.375,8.243,18.375,18.375s-8.243,18.375-18.375,18.375-18.375-8.243-18.375-18.375,8.243-18.375,18.375-18.375m0-6c-13.4619,0-24.375,10.9131-24.375,24.375s10.9131,24.375,24.375,24.375,24.375-10.9131,24.375-24.375-10.9131-24.375-24.375-24.375h0Z"/>
      </g>
      <g>
        <circle class="uuid-df1e4324-7cef-4e2f-9b1c-0667e0b6f87a" cx="24.375" cy="182.9126" r="21.375"/>
        <path d="m24.375,164.5376c10.132,0,18.375,8.243,18.375,18.375s-8.243,18.375-18.375,18.375-18.375-8.243-18.375-18.375,8.243-18.375,18.375-18.375m0-6c-13.4619,0-24.375,10.9131-24.375,24.375s10.9131,24.375,24.375,24.375,24.375-10.9131,24.375-24.375-10.9131-24.375-24.375-24.375h0Z"/>
      </g>
      <g>
        <circle class="uuid-df1e4324-7cef-4e2f-9b1c-0667e0b6f87a" cx="374.375" cy="426.9126" r="21.375"/>
        <path d="m374.375,408.5376c10.132,0,18.375,8.243,18.375,18.375s-8.243,18.375-18.375,18.375-18.375-8.243-18.375-18.375,8.243-18.375,18.375-18.375m0-6c-13.4619,0-24.375,10.9131-24.375,24.375s10.9131,24.375,24.375,24.375,24.375-10.9131,24.375-24.375-10.9131-24.375-24.375-24.375h0Z"/>
      </g>
      <g>
        <circle class="uuid-df1e4324-7cef-4e2f-9b1c-0667e0b6f87a" cx="517.375" cy="334.9126" r="21.375"/>
        <path d="m517.375,316.5376c10.132,0,18.375,8.243,18.375,18.375s-8.243,18.375-18.375,18.375-18.375-8.243-18.375-18.375,8.243-18.375,18.375-18.375m0-6c-13.4619,0-24.375,10.9131-24.375,24.375s10.9131,24.375,24.375,24.375,24.375-10.9131,24.375-24.375-10.9131-24.375-24.375-24.375h0Z"/>
      </g>
      <g>
        <circle class="uuid-df1e4324-7cef-4e2f-9b1c-0667e0b6f87a" cx="211.375" cy="158.9126" r="21.375"/>
        <path d="m211.375,140.5376c10.132,0,18.375,8.243,18.375,18.375s-8.243,18.375-18.375,18.375-18.375-8.243-18.375-18.375,8.243-18.375,18.375-18.375m0-6c-13.4619,0-24.375,10.9131-24.375,24.375s10.9131,24.375,24.375,24.375,24.375-10.9131,24.375-24.375-10.9131-24.375-24.375-24.375h0Z"/>
      </g>
      <g>
        <path class="uuid-df1e4324-7cef-4e2f-9b1c-0667e0b6f87a" d="m348.715,531.1826c-2.48.72-4.98,1.3999-7.5,2.04-.19-.3501-.38-.7301-.61-1.1401-12.26-21.2899-23.71-37.6099-44.05-45.73-8.1-3.23-21.77-5.71-34.79-2.8699-29.22,6.3699-75.09,7.1699-106.18-26.7401-1.71-1.86-.22-1.3099.48-.84,17.47,11.45,38.57,14.09,66.82,9.62,29.35-4.64,60.42,8.25,87.55,25.8099,20.39,13.1801,30.41,27.76,38.28,39.8501Z"/>
        <path id="uuid-cd4d89a3-44d1-43ff-b432-2fd07e3627ca" data-name="path15" class="uuid-df1e4324-7cef-4e2f-9b1c-0667e0b6f87a" d="m131.9474,395.0755c-.8072-2.2127-.605-2.4343.9908-.6591,11.0594,12.3683,17.7322,19.1085,31.8084,26.6592,14.0764,7.5434,28.2678,16.7649,34.5086,21.5309,6.2485,4.7618,12.911,9.0367,18.1464,11.7198,1.3874.7068,1.8825-.2119.2464-1.2877-21.9064-14.4405-24.9376-38.2224-26.0642-54.3318-1.1119-16.1087-.1656-23.2617-.4027-27.0199-.2429-3.7591.5134-2.7266,1.7104.1125,9.2677,21.9255,14.4467,23.2163,21.66,47.3863,5.9496,19.9669,5.519,33.3581,15.18,40.6567,1.8025,1.3598,1.3979,2.0874-1.0046,1.607-10.6337-2.1408-17.3553-3.0504-26.2929-2.6625-30.9041-.3879-52.6298-14.8035-70.4864-63.7113h0Z"/>
        <path id="uuid-5ec7ecb5-6076-4e24-b4ec-d624b7e6ac2c" data-name="path17" class="uuid-df1e4324-7cef-4e2f-9b1c-0667e0b6f87a" d="m189.5284,425.1899c-10.5712-19.2199-11.7655-30.9773-28.2112-56.0145-6.3221-9.6233-13.8378-18.2305-18.2829-27.6596-.9732-2.0616-2.4685-1.5339-1.978,1.4521,4.7926,29.9835,13.8207,64.6878,46.5424,83.0896,2.2305,1.2491,2.9192.9093,1.9298-.8676Z"/>
      </g>
    </g>
  </g>
</svg>